<svg xmlns="http://www.w3.org/2000/svg" width="492" height="408.652" viewBox="0 0 492 408.652">
  <g id="right-arrow" transform="translate(0)">
    <g id="Grupo_111" data-name="Grupo 111" transform="translate(0 0)">
      <path id="Caminho_880" data-name="Caminho 880" d="M27.656,207.418l-.768.168H356.112l-103.5-103.724a27.181,27.181,0,0,1,0-38.212l16.1-16.112a26.938,26.938,0,0,1,38.024-.02l177.412,177.4a27.123,27.123,0,0,1,0,38.156L306.744,442.482a26.962,26.962,0,0,1-38.024,0l-16.1-16.112a26.649,26.649,0,0,1-7.848-19.008,25.85,25.85,0,0,1,7.848-18.652l104.664-104.3H27.288C12.46,284.406,0,271.626,0,256.806V234.018C0,219.2,12.828,207.418,27.656,207.418Z" transform="translate(0 -41.674)"/>
    </g>
  </g>
</svg>
