<svg xmlns="http://www.w3.org/2000/svg" width="271.145" height="72.036" viewBox="0 0 271.145 72.036">
  <g id="logofix1" transform="translate(-27.3 -8)">
    <path id="Caminho_111" data-name="Caminho 111" d="M54.1,53.354V71.487H47.422V89.123H27.3V47.15q0-11.84,7.317-19.6c4.871-5.17,12.089-7.863,19.485-7.863V38.62c-3.613-.475-6.681,2.068-6.681,6.363v8.371Z" transform="translate(0 -9.405)" fill="#fff"/>
    <path id="Caminho_112" data-name="Caminho 112" d="M231.331,30.05V79.459H212.8V30.05ZM222.105,8a9.071,9.071,0,0,1,6.522,2.644,8.432,8.432,0,0,1,2.744,6.263,8.378,8.378,0,0,1-2.6,6.343,10.168,10.168,0,0,1-13.322,0,8.378,8.378,0,0,1-2.6-6.343,8.432,8.432,0,0,1,2.744-6.263A9.071,9.071,0,0,1,222.105,8Z" transform="translate(-148.617)" fill="#fff"/>
    <path id="Caminho_113" data-name="Caminho 113" d="M399.17,120.2H417.7v10.856a17.508,17.508,0,0,1-1.372,7.516,12.6,12.6,0,0,1-4.692,5.03,13.263,13.263,0,0,1,4.712,5.01,16.214,16.214,0,0,1,1.332,7.138v13.878H399.15V154.717c0-3.4-1.193-5.11-3.559-5.11q-3.46,0-3.46,4.414v15.608H373.6V156.447a14.707,14.707,0,0,1,1.67-7.436,16.425,16.425,0,0,1,5.766-5.408,16.835,16.835,0,0,1-5.766-5.647,15.371,15.371,0,0,1-1.67-7.575V120.22h18.531v12.467a4.985,4.985,0,0,0,.994,3.181,3.07,3.07,0,0,0,2.525,1.233q3.519,0,3.519-4.414Z" transform="translate(-277.445 -89.891)" fill="#fff"/>
    <path id="Caminho_114" data-name="Caminho 114" d="M687.831,28.5V96.142H669.3V28.5Z" transform="translate(-514.351 -16.424)" fill="#fff" opacity="0.8"/>
    <path id="Caminho_115" data-name="Caminho 115" d="M851.082,143.453V162.64a24.945,24.945,0,0,1-4.156.4,25.424,25.424,0,0,1-18.591-7.337,26.165,26.165,0,0,1,.08-36.624,24.891,24.891,0,0,1,18.253-7.476q11.989,0,18.909,7.019t6.919,19.147v24.217H853.965V139.1a9.555,9.555,0,0,0-1.909-6.243,6.292,6.292,0,0,0-5.13-2.326,7.289,7.289,0,0,0-5.249,12.228,6.607,6.607,0,0,0,4.911,1.988A8.478,8.478,0,0,0,851.082,143.453Z" transform="translate(-635.809 -83.001)" fill="#fff" opacity="0.8"/>
    <path id="Caminho_116" data-name="Caminho 116" d="M1149.631,24.8V65.282q0,9.872,7.078,9.862a7.081,7.081,0,0,0,5.13-2.048,6.658,6.658,0,0,0,2.108-4.971,6.989,6.989,0,0,0-1.988-5.07,6.46,6.46,0,0,0-4.851-2.048,8.6,8.6,0,0,0-4.653,1.789V42.337q3.281-.3,4.951-.3a24.264,24.264,0,0,1,17.914,7.536,24.875,24.875,0,0,1,7.456,18.133A24.651,24.651,0,0,1,1175.2,86a26.468,26.468,0,0,1-29.466,5.011,24.07,24.07,0,0,1-8.689-6.541q-5.935-7.128-5.945-18.491V24.8Z" transform="translate(-884.332 -13.46)" fill="#fff" opacity="0.8"/>
  </g>
</svg>
