<svg xmlns="http://www.w3.org/2000/svg" width="219.769" height="401.863" viewBox="0 0 219.769 401.863">
  <path id="apple-watch" d="M236.21,282.56a37.717,37.717,0,0,1-37.675,37.675H72.954A37.717,37.717,0,0,1,35.279,282.56V119.3A37.717,37.717,0,0,1,72.954,81.628H198.536A37.717,37.717,0,0,1,236.21,119.3Zm-37.675,69.07v23.239c0,12.417-3.95,13.547-25.013,17.214-.443.05-1.008.148-1.978.314a212.19,212.19,0,0,1-35.8,3.187,211.744,211.744,0,0,1-36.57-3.3c-.433-.078-.75-.135-1.014-.173-21.713-4.254-25.207-5.8-25.207-17.246V351.63c0-7.83-.678-16.743-4.455-24.228H203.157c-3.978,7.8-4.621,16.95-4.621,24.228ZM72.954,50.233V26.994C72.954,15.55,76.448,14,98.161,9.748c.264-.038.581-.094,1.014-.173a211.744,211.744,0,0,1,36.57-3.3,212.188,212.188,0,0,1,35.8,3.187c.97.166,1.535.264,1.978.314,21.044,3.661,25.013,4.766,25.013,17.214V50.233c0,7.277.644,16.432,4.621,24.228H68.5c3.777-7.485,4.455-16.4,4.455-24.228Zm173.6,119.3a2.222,2.222,0,0,0,2.22-2.22V134.081a2.222,2.222,0,0,0-2.22-2.22H242.49V119.3a44.082,44.082,0,0,0-28.664-41.141c-6.587-5.818-9.01-15.349-9.01-27.929V26.994c0-18.191-10.069-19.9-30.476-23.446A227.026,227.026,0,0,0,135.745,0,220.455,220.455,0,0,0,97.15,3.548C76.743,7.541,66.675,9.692,66.675,26.994V50.233c0,12.53-2.088,22.027-8.8,27.851A44.084,44.084,0,0,0,29,119.3V282.56a44.084,44.084,0,0,0,28.878,41.219c6.709,5.824,8.8,15.321,8.8,27.851v23.239c0,17.3,10.069,19.453,30.476,23.446a220.457,220.457,0,0,0,38.595,3.548,227.028,227.028,0,0,0,38.595-3.548c20.407-3.551,30.476-5.256,30.476-23.446V351.63c0-12.58,2.424-22.112,9.01-27.929A44.082,44.082,0,0,0,242.49,282.56V257.443h3.14a3.141,3.141,0,0,0,3.14-3.14V210.35a3.141,3.141,0,0,0-3.14-3.14h-3.14V169.536ZM226.792,282.56a28.286,28.286,0,0,1-28.256,28.256H72.954A28.286,28.286,0,0,1,44.7,282.56V119.3A28.286,28.286,0,0,1,72.954,91.047H198.536A28.286,28.286,0,0,1,226.792,119.3ZM198.536,87.907H72.954a31.4,31.4,0,0,0-31.4,31.4V282.56a31.4,31.4,0,0,0,31.4,31.4H198.536a31.4,31.4,0,0,0,31.4-31.4V119.3a31.4,31.4,0,0,0-31.4-31.4Z" transform="translate(-29)"/>
</svg>
