<svg id="ipad" xmlns="http://www.w3.org/2000/svg" width="266.862" height="401.862" viewBox="0 0 266.862 401.862">
  <path id="Caminho_135" data-name="Caminho 135" d="M288.362,59.651V53.372a3.149,3.149,0,0,0-3.14-3.14V25.116A25.19,25.19,0,0,0,260.106,0H46.616A25.19,25.19,0,0,0,21.5,25.116v351.63a25.19,25.19,0,0,0,25.116,25.116h213.49a25.19,25.19,0,0,0,25.116-25.116V113.024a3.149,3.149,0,0,0,3.14-3.14v-31.4a3.149,3.149,0,0,0-3.14-3.14V62.791A3.149,3.149,0,0,0,288.362,59.651Zm-9.419,317.094a18.86,18.86,0,0,1-18.837,18.837H46.616a18.86,18.86,0,0,1-18.837-18.837V25.116A18.86,18.86,0,0,1,46.616,6.279h213.49a18.86,18.86,0,0,1,18.837,18.837Z" transform="translate(-21.5)"/>
  <ellipse id="Elipse_10" data-name="Elipse 10" cx="2.082" cy="2.082" rx="2.082" ry="2.082" transform="translate(129.767 12.489)"/>
  <path id="Caminho_136" data-name="Caminho 136" d="M67.826,116a8.326,8.326,0,1,0,8.326,8.326A8.326,8.326,0,0,0,67.826,116Zm0,14.571a6.245,6.245,0,1,1,6.245-6.245A6.252,6.252,0,0,1,67.826,130.571Z" transform="translate(63.98 260.884)"/>
  <path id="Caminho_137" data-name="Caminho 137" d="M260.569,12H38.559C31.347,12,25.5,18.106,25.5,25.637V346.106c0,7.531,5.847,13.637,13.059,13.637H260.569c7.212,0,13.059-6.106,13.059-13.637V25.637C273.628,18.106,267.781,12,260.569,12Zm9.795,334.106a10.03,10.03,0,0,1-9.795,10.228H38.559a10.03,10.03,0,0,1-9.795-10.228V25.637a10.03,10.03,0,0,1,9.795-10.228H260.569a10.03,10.03,0,0,1,9.795,10.228Z" transform="translate(-17.174 12.978)"/>
</svg>
