<svg xmlns="http://www.w3.org/2000/svg" width="207.21" height="401.863" viewBox="0 0 207.21 401.863">
  <g id="iphone" transform="translate(0)">
    <path id="Caminho_138" data-name="Caminho 138" d="M235.071,81.628V25.116A25.19,25.19,0,0,0,209.954,0H59.256A25.19,25.19,0,0,0,34.14,25.116V50.233A3.149,3.149,0,0,0,31,53.372v6.279a3.149,3.149,0,0,0,3.14,3.14V81.628A3.149,3.149,0,0,0,31,84.768v18.837a3.149,3.149,0,0,0,3.14,3.14v6.279a3.149,3.149,0,0,0-3.14,3.14V135a3.149,3.149,0,0,0,3.14,3.14V376.746a25.19,25.19,0,0,0,25.116,25.116h150.7a25.19,25.19,0,0,0,25.116-25.116V113.024a3.149,3.149,0,0,0,3.14-3.14V84.768A3.149,3.149,0,0,0,235.071,81.628Zm-6.279,295.118a18.86,18.86,0,0,1-18.837,18.837H59.256a18.86,18.86,0,0,1-18.837-18.837V25.116A18.86,18.86,0,0,1,59.256,6.279h150.7a18.86,18.86,0,0,1,18.837,18.837Z" transform="translate(-31)"/>
    <ellipse id="Elipse_11" data-name="Elipse 11" cx="1.7" cy="1.7" rx="1.7" ry="1.7" transform="translate(68.982 27.205)"/>
    <path id="Caminho_139" data-name="Caminho 139" d="M57.7,11.4h51.009a1.7,1.7,0,1,0,0-3.4H57.7a1.7,1.7,0,1,0,0,3.4Z" transform="translate(20.401 19.205)"/>
    <path id="Caminho_140" data-name="Caminho 140" d="M73.6,116a13.6,13.6,0,1,0,13.6,13.6A13.6,13.6,0,0,0,73.6,116Zm0,23.8a10.2,10.2,0,1,1,10.2-10.2A10.214,10.214,0,0,1,73.6,139.8Z" transform="translate(30.003 245.056)"/>
    <path id="Caminho_141" data-name="Caminho 141" d="M196.895,15H48.31A12.251,12.251,0,0,0,36,27.191V306.055a12.251,12.251,0,0,0,12.31,12.191H196.895a12.251,12.251,0,0,0,12.31-12.191V27.191A12.251,12.251,0,0,0,196.895,15Zm9.217,291.055a9.184,9.184,0,0,1-9.217,9.128H48.31a9.184,9.184,0,0,1-9.217-9.128V27.191a9.184,9.184,0,0,1,9.217-9.128H196.895a9.184,9.184,0,0,1,9.217,9.128V306.055Z" transform="translate(-18.997 36.009)"/>
  </g>
</svg>
