<svg xmlns="http://www.w3.org/2000/svg" width="70.158" height="70" viewBox="0 0 70.158 70">
  <g id="call-answer" transform="translate(0 -0.394)">
    <g id="Agrupar_40" data-name="Agrupar 40" transform="translate(0 0.394)">
      <g id="Agrupar_39" data-name="Agrupar 39">
        <path id="Caminho_110" data-name="Caminho 110" d="M68.585,55.76,57.751,44.924a5.649,5.649,0,0,0-7.965.15l-5.459,5.457c-.345-.19-.7-.389-1.077-.6a54.321,54.321,0,0,1-13.13-9.5A54.624,54.624,0,0,1,20.6,27.283c-.2-.365-.4-.718-.587-1.052l3.664-3.658,1.8-1.8a5.644,5.644,0,0,0,.145-7.966L14.792,1.966a5.644,5.644,0,0,0-7.965.15L3.773,5.187l.083.083A17.658,17.658,0,0,0,1.341,9.708a18.4,18.4,0,0,0-1.119,4.5c-1.431,11.861,3.989,22.7,18.7,37.41,20.332,20.331,36.718,18.8,37.425,18.72a18.307,18.307,0,0,0,4.514-1.134A17.6,17.6,0,0,0,65.281,66.7l.067.059,3.094-3.029A5.655,5.655,0,0,0,68.585,55.76Z" transform="translate(0 -0.394)" fill="#fff"/>
      </g>
    </g>
  </g>
</svg>
